<svg width="522" height="161" viewBox="0 0 522 161" fill="none" xmlns="http://www.w3.org/2000/svg">
<path d="M142.352 127C141.072 127 140.432 126.531 140.432 125.592C140.432 124.824 140.987 124.312 142.096 124.056L145.04 123.544C146.832 123.203 147.984 122.733 148.496 122.136C149.093 121.539 149.392 120.344 149.392 118.552V43.288C149.392 41.496 149.093 40.3013 148.496 39.704C147.984 39.1067 146.832 38.6373 145.04 38.296L142.096 37.784C140.987 37.528 140.432 37.016 140.432 36.248C140.432 35.3093 141.072 34.84 142.352 34.84H165.776C167.056 34.84 167.696 35.352 167.696 36.376C167.696 37.144 167.227 37.6133 166.288 37.784L162.832 38.296C161.04 38.552 159.845 39.0213 159.248 39.704C158.736 40.3867 158.48 41.624 158.48 43.416V77.976C158.48 78.8293 158.736 79.3413 159.248 79.512C159.76 79.6827 160.229 79.384 160.656 78.616L181.648 45.72C184.464 41.368 184.208 38.8933 180.88 38.296L177.936 37.784C176.827 37.528 176.272 36.9733 176.272 36.12C176.272 35.2667 176.869 34.84 178.064 34.84H199.824C201.019 34.84 201.616 35.3093 201.616 36.248C201.616 37.1867 201.061 37.6987 199.952 37.784L197.52 38.04C194.875 38.296 192.699 39.064 190.992 40.344C189.285 41.624 187.365 43.928 185.232 47.256L170.768 69.912C169.915 71.3627 169.872 72.7707 170.64 74.136L194.704 119.448C195.387 120.813 196.069 121.795 196.752 122.392C197.52 122.989 198.416 123.373 199.44 123.544L202.512 124.056C203.536 124.141 204.048 124.653 204.048 125.592C204.048 126.531 203.451 127 202.256 127H179.472C178.277 127 177.68 126.531 177.68 125.592C177.68 124.739 178.235 124.227 179.344 124.056L181.52 123.8C184.848 123.373 185.531 121.283 183.568 117.528L165.136 82.456C164.795 81.7733 164.411 81.432 163.984 81.432C163.557 81.3467 163.131 81.6453 162.704 82.328L160.016 86.552C159.419 87.4053 158.992 88.216 158.736 88.984C158.565 89.752 158.48 90.7333 158.48 91.928V118.424C158.48 120.216 158.736 121.453 159.248 122.136C159.845 122.819 161.04 123.288 162.832 123.544L166.288 124.056C167.227 124.227 167.696 124.696 167.696 125.464C167.696 126.488 167.056 127 165.776 127H142.352ZM202.215 127C200.935 127 200.295 126.531 200.295 125.592C200.295 124.824 200.85 124.312 201.959 124.056L203.495 123.8C205.287 123.459 206.439 122.947 206.951 122.264C207.548 121.496 207.847 120.216 207.847 118.424V75.416C207.847 73.88 207.591 72.856 207.079 72.344C206.652 71.7467 205.842 71.3627 204.647 71.192L201.959 70.808C200.85 70.7227 200.295 70.2533 200.295 69.4C200.295 68.7173 200.978 68.248 202.343 67.992C204.988 67.5653 206.994 66.8827 208.359 65.944C209.81 65.0053 211.303 63.8533 212.839 62.488C213.607 61.72 214.247 61.336 214.759 61.336C215.527 61.336 215.911 61.848 215.911 62.872V68.632C215.911 69.4 216.167 69.912 216.679 70.168C217.276 70.3387 217.916 70.0827 218.599 69.4C222.012 66.1573 224.999 63.9387 227.559 62.744C230.204 61.5493 232.978 60.952 235.879 60.952C239.719 60.952 242.791 62.3173 245.095 65.048C247.399 67.6933 248.551 71.6187 248.551 76.824V118.424C248.551 120.216 248.807 121.496 249.319 122.264C249.916 122.947 251.111 123.416 252.903 123.672L255.719 124.056C256.658 124.227 257.127 124.739 257.127 125.592C257.127 126.531 256.615 127 255.591 127H234.087C232.892 127 232.295 126.531 232.295 125.592C232.295 124.739 232.764 124.227 233.703 124.056L235.495 123.8C237.287 123.544 238.439 123.032 238.951 122.264C239.548 121.496 239.847 120.216 239.847 118.424V78.232C239.847 74.0507 239.079 71.1067 237.543 69.4C236.007 67.6933 233.831 66.84 231.015 66.84C228.284 66.84 225.81 67.6507 223.591 69.272C221.458 70.808 219.751 72.8987 218.471 75.544C217.191 78.104 216.551 80.9627 216.551 84.12V118.424C216.551 120.216 216.807 121.496 217.319 122.264C217.916 123.032 219.111 123.501 220.903 123.672L224.359 124.056C225.298 124.227 225.767 124.696 225.767 125.464C225.767 126.488 225.127 127 223.847 127H202.215ZM284.484 128.152C280.132 128.152 276.207 126.701 272.708 123.8C269.295 120.813 266.564 116.76 264.516 111.64C262.468 106.52 261.444 100.803 261.444 94.488C261.444 88.1733 262.468 82.4987 264.516 77.464C266.564 72.4293 269.337 68.4187 272.836 65.432C276.335 62.4453 280.217 60.952 284.484 60.952C288.836 60.952 292.719 62.4453 296.132 65.432C299.631 68.4187 302.404 72.4293 304.452 77.464C306.5 82.4987 307.524 88.1733 307.524 94.488C307.524 100.803 306.5 106.52 304.452 111.64C302.489 116.76 299.759 120.813 296.26 123.8C292.761 126.701 288.836 128.152 284.484 128.152ZM284.484 124.952C293.359 124.952 297.796 114.797 297.796 94.488C297.796 74.264 293.359 64.152 284.484 64.152C275.609 64.152 271.172 74.264 271.172 94.488C271.172 114.797 275.609 124.952 284.484 124.952ZM333.936 128.152C332.827 128.152 332.059 127.299 331.632 125.592L316.144 70.296C315.547 68.248 314.949 66.9253 314.352 66.328C313.84 65.7307 312.987 65.304 311.792 65.048L309.872 64.664C308.763 64.408 308.208 63.8533 308.208 63C308.208 62.1467 308.805 61.72 310 61.72H330.736C331.931 61.72 332.528 62.1467 332.528 63C332.528 63.9387 331.973 64.4933 330.864 64.664L328.816 64.92C326.768 65.176 325.488 65.688 324.976 66.456C324.464 67.1387 324.464 68.4187 324.976 70.296L335.088 107.544C335.344 108.397 335.728 108.824 336.24 108.824C336.837 108.824 337.264 108.397 337.52 107.544L346.224 74.392C346.395 73.7093 346.48 73.0267 346.48 72.344C346.565 71.6613 346.48 70.936 346.224 70.168C345.627 68.12 345.029 66.84 344.432 66.328C343.92 65.7307 343.067 65.304 341.872 65.048L339.952 64.664C338.843 64.408 338.288 63.8533 338.288 63C338.288 62.1467 338.885 61.72 340.08 61.72H360.816C362.011 61.72 362.608 62.1467 362.608 63C362.608 63.9387 362.053 64.4933 360.944 64.664L358.896 64.92C356.848 65.176 355.611 65.688 355.184 66.456C354.757 67.1387 354.715 68.4187 355.056 70.296L363.248 107.288C363.419 108.141 363.76 108.568 364.272 108.568C364.869 108.568 365.296 108.141 365.552 107.288L375.28 72.6C375.963 70.296 376.133 68.5893 375.792 67.48C375.536 66.2853 374.341 65.5173 372.208 65.176L369.52 64.664C368.411 64.408 367.856 63.8533 367.856 63C367.856 62.1467 368.453 61.72 369.648 61.72H385.648C386.843 61.72 387.44 62.1893 387.44 63.128C387.44 63.9813 386.928 64.5787 385.904 64.92L384.752 65.304C383.472 65.7307 382.363 66.4987 381.424 67.608C380.485 68.7173 379.632 70.6373 378.864 73.368L364.272 125.592C363.845 127.299 363.035 128.152 361.84 128.152C360.816 128.152 360.091 127.299 359.664 125.592L349.68 84.632C349.424 83.6933 348.997 83.224 348.4 83.224C347.888 83.1387 347.504 83.608 347.248 84.632L336.24 125.592C335.813 127.299 335.045 128.152 333.936 128.152Z" fill="white"/>
<path d="M401.223 128.152C398.407 128.152 395.42 127.725 392.263 126.872C389.191 126.019 386.844 124.952 385.223 123.672C384.626 123.16 384.37 122.392 384.455 121.368L387.271 104.6C387.442 103.491 387.954 102.936 388.807 102.936C389.746 102.936 390.215 103.533 390.215 104.728L390.471 110.872C390.642 115.736 391.794 119.32 393.927 121.624C396.146 123.843 398.834 124.952 401.991 124.952C404.722 124.952 407.068 124.099 409.031 122.392C410.994 120.6 411.975 117.997 411.975 114.584C411.975 112.621 411.676 110.829 411.079 109.208C410.482 107.501 409.543 105.709 408.263 103.832C406.983 101.869 405.234 99.5227 403.015 96.792C400.114 93.0373 397.938 89.8373 396.487 87.192C395.122 84.4613 394.439 81.6453 394.439 78.744C394.439 73.368 396.103 69.0587 399.431 65.816C402.844 62.5733 407.154 60.952 412.359 60.952C414.663 60.952 416.882 61.2933 419.015 61.976C421.234 62.6587 423.068 63.6827 424.519 65.048C425.287 65.6453 425.543 66.4133 425.287 67.352L421.703 84.504C421.447 85.6133 420.935 86.168 420.167 86.168C419.399 86.168 418.93 85.5707 418.759 84.376L418.375 78.232C418.034 73.112 417.351 69.4427 416.327 67.224C415.388 65.0053 413.383 63.896 410.311 63.896C407.58 63.896 405.362 64.8347 403.655 66.712C401.948 68.5893 401.095 70.8507 401.095 73.496C401.095 76.312 401.863 78.9147 403.399 81.304C404.935 83.608 407.026 86.552 409.671 90.136C413.17 94.744 415.516 98.4133 416.711 101.144C417.991 103.875 418.631 106.648 418.631 109.464C418.631 113.048 417.82 116.248 416.199 119.064C414.663 121.88 412.572 124.099 409.927 125.72C407.282 127.341 404.38 128.152 401.223 128.152ZM441.512 128.152C436.989 128.152 433.363 126.403 430.632 122.904C427.901 119.32 426.536 114.285 426.536 107.8C426.536 102.168 427.517 96.5787 429.48 91.032C431.528 85.4853 434.173 80.4507 437.416 75.928C440.659 71.4053 444.2 67.7787 448.04 65.048C451.965 62.3173 455.763 60.952 459.432 60.952C463.443 60.952 466.301 61.9333 468.008 63.896C469.8 65.7733 470.696 68.3333 470.696 71.576C470.696 75.416 469.331 79.256 466.6 83.096C463.955 86.8507 460.2 90.2213 455.336 93.208C450.557 96.1947 444.925 98.4133 438.44 99.864C436.563 100.291 435.581 101.357 435.496 103.064C435.411 103.661 435.368 104.301 435.368 104.984C435.368 105.581 435.368 106.179 435.368 106.776C435.368 111.64 436.179 115.309 437.8 117.784C439.507 120.259 441.811 121.496 444.712 121.496C447.955 121.496 451.069 120.003 454.056 117.016C457.128 114.029 459.688 109.805 461.736 104.344C461.992 103.576 462.504 103.192 463.272 103.192C463.784 103.192 464.083 103.405 464.168 103.832C464.339 104.259 464.339 104.771 464.168 105.368C461.437 112.877 458.109 118.552 454.184 122.392C450.344 126.232 446.12 128.152 441.512 128.152ZM436.776 95C436.605 95.5973 436.691 96.1093 437.032 96.536C437.459 96.8773 437.971 96.9627 438.568 96.792C443.859 95.3413 448.296 93.1653 451.88 90.264C455.464 87.2773 458.152 83.9493 459.944 80.28C461.821 76.6107 462.76 73.0267 462.76 69.528C462.76 65.944 461.352 64.152 458.536 64.152C456.061 64.152 453.373 65.6027 450.472 68.504C447.571 71.4053 444.883 75.2027 442.408 79.896C439.933 84.5893 438.056 89.624 436.776 95ZM486.012 128.152C481.489 128.152 477.863 126.403 475.132 122.904C472.401 119.32 471.036 114.285 471.036 107.8C471.036 102.168 472.017 96.5787 473.98 91.032C476.028 85.4853 478.673 80.4507 481.916 75.928C485.159 71.4053 488.7 67.7787 492.54 65.048C496.465 62.3173 500.263 60.952 503.932 60.952C507.943 60.952 510.801 61.9333 512.508 63.896C514.3 65.7733 515.196 68.3333 515.196 71.576C515.196 75.416 513.831 79.256 511.1 83.096C508.455 86.8507 504.7 90.2213 499.836 93.208C495.057 96.1947 489.425 98.4133 482.94 99.864C481.063 100.291 480.081 101.357 479.996 103.064C479.911 103.661 479.868 104.301 479.868 104.984C479.868 105.581 479.868 106.179 479.868 106.776C479.868 111.64 480.679 115.309 482.3 117.784C484.007 120.259 486.311 121.496 489.212 121.496C492.455 121.496 495.569 120.003 498.556 117.016C501.628 114.029 504.188 109.805 506.236 104.344C506.492 103.576 507.004 103.192 507.772 103.192C508.284 103.192 508.583 103.405 508.668 103.832C508.839 104.259 508.839 104.771 508.668 105.368C505.937 112.877 502.609 118.552 498.684 122.392C494.844 126.232 490.62 128.152 486.012 128.152ZM481.276 95C481.105 95.5973 481.191 96.1093 481.532 96.536C481.959 96.8773 482.471 96.9627 483.068 96.792C488.359 95.3413 492.796 93.1653 496.38 90.264C499.964 87.2773 502.652 83.9493 504.444 80.28C506.321 76.6107 507.26 73.0267 507.26 69.528C507.26 65.944 505.852 64.152 503.036 64.152C500.561 64.152 497.873 65.6027 494.972 68.504C492.071 71.4053 489.383 75.2027 486.908 79.896C484.433 84.5893 482.556 89.624 481.276 95Z" fill="#B8B4B4"/>
<path d="M65.3035 61.5548L72.3745 68.6259C86.043 82.2945 86.043 104.455 72.3745 118.124L70.607 119.891C56.9385 133.56 34.7778 133.56 21.1094 119.891C7.44105 106.223 7.44105 84.062 21.1094 70.3937L28.1805 77.465C18.4174 87.228 18.4174 103.057 28.1805 112.82C37.9436 122.583 53.7725 122.583 63.536 112.82L65.3035 111.053C75.0665 101.289 75.0665 85.46 65.3035 75.697L58.2325 68.6259L65.3035 61.5548ZM98.891 91.607L91.82 84.536C101.583 74.7725 101.583 58.9436 91.82 49.1805C82.057 39.4174 66.228 39.4174 56.465 49.1805L54.697 50.9483C44.9339 60.7114 44.9339 76.5405 54.697 86.3035L61.768 93.3745L54.697 100.446L47.6259 93.3745C33.9576 79.7065 33.9576 57.5456 47.6259 43.8772L49.3937 42.1094C63.062 28.4411 85.223 28.4411 98.891 42.1094C112.56 55.7778 112.56 77.9385 98.891 91.607Z" fill="white"/>
</svg>
